<svg id="Livello_1" data-name="Livello 1" xmlns="http://www.w3.org/2000/svg" viewBox="0 0 116.64 116.64"><defs><style>.cls-1{fill:#ed1c24;}.cls-2{fill:#fff;}</style></defs><title>BPM</title><circle class="cls-1" cx="58.32" cy="58.32" r="58"/><path class="cls-2" d="M48,82.56,32,61.14c-1.51-2.83-4.05-5.62-4.85-8.74a27.76,27.76,0,0,1-.88-5.81,1.1,1.1,0,0,0,0-.18V45l0-.18c.07-.67.1-1.33.22-2a16.11,16.11,0,0,1,7.42-11.06,15.39,15.39,0,0,1,7.18-2.38l.69-.07h1.38l.91.07a13.88,13.88,0,0,1,10.2,5.26,31.51,31.51,0,0,1,3.62,5.6c.15.29.3.57.44.86l0,0,.1-.17a37.08,37.08,0,0,1,3.09-5.18,16.93,16.93,0,0,1,4-4.05A13.11,13.11,0,0,1,71,29.56c.79-.12,1.6-.17,2.4-.25l.15,0h1.39l.16,0a15.37,15.37,0,0,1,2.7.36A16.34,16.34,0,0,1,90.35,43.9c0,.36.06.73.09,1.09v1.42c0,.26,0,.52,0,.77-.22,3.5-.73,7-2.48,10C84.48,63.17,71.21,79,71.21,79c-2.27,2.34-10.48,12.83-12.77,15.16l-.11.11-.12-.1c-4-4.06-6.32-7.41-10.2-11.6"/></svg>