<svg id="Livello_1" data-name="Livello 1" xmlns="http://www.w3.org/2000/svg" viewBox="0 0 116.64 116.64"><defs><style>.cls-1{fill:#137695;}</style></defs><title>IconaMano2</title><path class="cls-1" d="M36.79,51.51c0-1.07,0-2,0-3s0-2,0-3c0-.66,0-1.32,0-2,0-5.07,0-10.15,0-15.22a11.52,11.52,0,0,1,3.37-8.6,8.7,8.7,0,0,1,10.88-1l.63.39c0-1,0-1.82,0-2.69a10.63,10.63,0,0,1,2-6.18,8.42,8.42,0,0,1,14.24.47,11.58,11.58,0,0,1,1,2.12,24.07,24.07,0,0,1,.63,2.34A4.17,4.17,0,0,0,70,15a7.89,7.89,0,0,1,10.48,2.33,9.92,9.92,0,0,1,2,6c0,2.55,0,5.1,0,7.65a3.94,3.94,0,0,0,0,.4l.53-.2a7.55,7.55,0,0,1,9,2,8.44,8.44,0,0,1,2.12,5.69c0,7.18,0,14.35,0,21.52s.16,14.09,0,21.13C93.83,90.49,90.3,98,83,103.47a32.55,32.55,0,0,1-14.37,6.08,36,36,0,0,1-18-1.41,29.16,29.16,0,0,1-12.48-8A38.55,38.55,0,0,1,33.85,94a54,54,0,0,1-5.67-13.82q-2.58-9.52-5.09-19.07a14.41,14.41,0,0,1-.5-6.29,6.92,6.92,0,0,1,7.48-6,9.61,9.61,0,0,1,5.2,1.72C35.73,50.84,36.2,51.13,36.79,51.51Zm14.72,5.92M64.88,56c0-.28-.13-20.83-.13-21.09,0-4.64,0-9.27,0-13.9a7.72,7.72,0,0,0-.47-2.61c-1.22-3.23-4.79-3.81-6.89-1.13a5.2,5.2,0,0,0-1.09,3.28q0,5.09,0,10.19c0,.23-.07,27.29-.1,27.52a2.13,2.13,0,0,1-4.17.48c-.06-.17-.13-23.5-.13-23.68,0-1.12,0-2.23,0-3.34a6.19,6.19,0,0,0-2.33-5.07,3.87,3.87,0,0,0-5.44.57,6.56,6.56,0,0,0-1.4,4.34c0,5.32,0,10.65,0,16V71.7a.31.31,0,0,1-.18-.18q-1.36-4-2.74-7.93a16.79,16.79,0,0,0-3.39-6,6.75,6.75,0,0,0-4-2.42c-1.62-.2-3,.56-2.93,2.33a18.56,18.56,0,0,0,.5,3.94c1.51,5.86,3.1,11.7,4.69,17.54A44.4,44.4,0,0,0,41,93.14a21.78,21.78,0,0,0,7.87,7,28.86,28.86,0,0,0,20.56,2.28,24.37,24.37,0,0,0,11.06-5.77,20.14,20.14,0,0,0,3-3.53,22,22,0,0,0,2.26-4.22,26.93,26.93,0,0,0,1.59-10c-.05-10.32,0-20.64-.05-31,0-2.17,0-4.34,0-6.5a3.61,3.61,0,0,0-1.68-3.12,2.51,2.51,0,0,0-3.63.59,4.16,4.16,0,0,0-.8,2.63c0,1.57,0,3.14,0,4.71,0,2.2,0,4.41,0,6.61a30.58,30.58,0,0,1-.28,3.72,1.93,1.93,0,0,1-3.59.54,2.69,2.69,0,0,1-.42-1,12.17,12.17,0,0,1-.06-1.71c0-2.47,0-4.93,0-7.39q0-9.87,0-19.75a5.66,5.66,0,0,0-.86-3.16,3.41,3.41,0,0,0-5.73-.35A5.15,5.15,0,0,0,69,27.14q0,6,0,12c0,.2-.1,17.07-.18,17.26C67.73,58.9,65,57.35,64.88,56Z"/></svg>