<svg id="Livello_1" data-name="Livello 1" xmlns="http://www.w3.org/2000/svg" viewBox="0 0 116.64 116.64"><defs><style>.cls-1{fill:#f9de3d;}.cls-2{fill:#fbb03b;}.cls-3{fill:#fff;}</style></defs><title>Stress</title><circle class="cls-1" cx="58.32" cy="58.32" r="57.01"/><circle class="cls-2" cx="58.35" cy="58.32" r="41.64"/><path class="cls-3" d="M49.94,82.43l.33.19L72.8,51.7l-.18-.26H58c4.3-5.85,8.45-11.51,12.69-17.3a8.12,8.12,0,0,0-.88-.1c-4.74,0-9.49,0-14.24,0a1,1,0,0,0-1,.71q-5.15,12-10.31,24c-.12.28-.2.57-.35,1H57.85Z"/><path class="cls-3" d="M49.94,82.43l7.91-22.7H43.91c.15-.43.23-.72.35-1q5.16-12,10.31-24a1,1,0,0,1,1-.71c4.75,0,9.5,0,14.24,0a8.12,8.12,0,0,1,.88.1C66.45,39.93,62.3,45.59,58,51.44H72.62l.18.26L50.27,82.62Z"/></svg>