<svg id="Livello_1" data-name="Livello 1" xmlns="http://www.w3.org/2000/svg" viewBox="0 0 116.64 116.64"><defs><style>.cls-1{fill:#55c6a9;}.cls-2{fill:#fff;}</style></defs><title>Vibes</title><circle class="cls-1" cx="58.32" cy="58.32" r="58"/><path class="cls-2" d="M49.8,74.38a19.1,19.1,0,0,1-6.4-6.81,20.51,20.51,0,0,1-2.73-9.27,17.26,17.26,0,0,1,0-2.49c.12-.83.24-1.66.39-2.47A17.33,17.33,0,0,1,43,48.77a16.71,16.71,0,0,1,6.81-6.51c-.56,1.52-1.37,2.74-1.88,4.11a30.59,30.59,0,0,0-1.41,3.94,26.91,26.91,0,0,0-.84,3.88,28.34,28.34,0,0,0-.12,3.91,35.26,35.26,0,0,0,1.37,7.95C47.69,68.75,48.67,71.47,49.8,74.38Z"/><path class="cls-2" d="M33.73,94A51.92,51.92,0,0,1,21.59,78a49.11,49.11,0,0,1-5.31-19.82,46,46,0,0,1,.86-10.4A43.49,43.49,0,0,1,20.63,38a44.58,44.58,0,0,1,13.1-15.34,75.11,75.11,0,0,0-9.61,16.89,46.28,46.28,0,0,0-3,18.43,47,47,0,0,0,1.22,9.34,70.09,70.09,0,0,0,2.7,9.17A101,101,0,0,0,33.73,94Z"/><path class="cls-2" d="M66.85,74.38c1.12-2.91,2.1-5.63,2.87-8.33a34.17,34.17,0,0,0,1.37-7.95A30,30,0,0,0,71,54.19a28.37,28.37,0,0,0-.85-3.88,29.16,29.16,0,0,0-1.41-3.94c-.5-1.37-1.32-2.59-1.87-4.11a16.62,16.62,0,0,1,6.8,6.51,17.7,17.7,0,0,1,1.89,4.57c.15.81.26,1.64.39,2.47a18.82,18.82,0,0,1,0,2.49,20.64,20.64,0,0,1-2.74,9.27A19.07,19.07,0,0,1,66.85,74.38Z"/><path class="cls-2" d="M82.91,94a101,101,0,0,0,8.65-17.55,68.58,68.58,0,0,0,2.7-9.17A46.25,46.25,0,0,0,95.48,58a46.45,46.45,0,0,0-3-18.43,75.16,75.16,0,0,0-9.62-16.89A44.61,44.61,0,0,1,96,38a44.49,44.49,0,0,1,3.49,9.78,46,46,0,0,1,.85,10.4A48.8,48.8,0,0,1,95.05,78,51.77,51.77,0,0,1,82.91,94Z"/></svg>